<svg xmlns="http://www.w3.org/2000/svg" viewBox="0 0 32 32" id="clapperboard">
  <path fill= "#FFFFFF" d="M29.5 13H8.101l21.08-4.214a.5.5 0 0 0 .392-.588l-1.078-5.394a1.001 1.001 0 0 0-1.177-.784L1.823 7.116a1.001 1.001 0 0 0-.784 1.177L2 13.099V29a1 1 0 0 0 1 1h26a1 1 0 0 0 1-1V13.5a.5.5 0 0 0-.5-.5zM4 18v-3h3.887l-3 3H4zm8.129-3h3.75l-3 3h-3.75l3-3zm7.992 0h3.802l-3 3h-3.802l3-3zm-4.688-5.505-3.467.693-3.53-2.354 3.467-.693 3.53 2.354zm.63-3.186 3.507-.701 3.531 2.354-3.507.701-3.531-2.354zm11.255.81-.057.011-3.531-2.354 3-.6.588 2.943zM4.275 8.665l3.531 2.354-4.022.804-.588-2.942 1.079-.216zM25.165 18 28 15.165V18h-2.835z"></path>
</svg>
